<svg xmlns="http://www.w3.org/2000/svg" viewBox="0 0 121.54 164.01"><defs><style>.cls-1{fill:none;}.cls-2{fill:#f28221;}</style></defs><g id="Layer_2" data-name="Layer 2"><g id="Layer_1-2" data-name="Layer 1"><polyline class="cls-1" points="40.73 37.7 40.34 37.7 36.62 37.7 36.27 37.7"/><path class="cls-2" d="M76.5,11.53C68.49,3.71,61.43,0,48.15,0H0V131.25l26.77.91,7.41.26v-6.91l-6.78-.44h-.07l-.55,0L7.42,123.84V9.59C18.6,9.21,42.91,8.72,50,9.87c9.22,1.51,16.12,9.26,19.2,18.75h18A36.57,36.57,0,0,0,76.5,11.53Z"/><path class="cls-2" d="M121.54,71a33,33,0,0,1-3.32,15.44C113,97.58,104.55,104,92.83,107.93H93a69.68,69.68,0,0,1-22.49,3.72H69V164H30.47V69.14a6.32,6.32,0,0,1,6.31-6.31h27.1a10.84,10.84,0,0,1,6.5-5.9h0a11.3,11.3,0,0,1,3.09-.52,10.86,10.86,0,0,1,10.24,6.91,10.72,10.72,0,0,1-17,11.94,10.28,10.28,0,0,1-2.81-3.79H42.22a4.34,4.34,0,0,0-4.34,4.35V156.6H60.33V103H70.52c4.89,0,13.86-2.25,18.09-4.15,9.72-4.36,15.31-15.69,15.31-27.41,0-10.34-4.52-20.63-12-26.16a20.83,20.83,0,0,0-9-3.89,69.35,69.35,0,0,0-8.22-.6c-10-.31-24.89.05-32.61.33a10.72,10.72,0,0,1-9.6,6.08A10.86,10.86,0,0,1,21.66,36.8,10.72,10.72,0,0,1,41.9,31.54H81.07A47.05,47.05,0,0,1,91.73,32.6c7,1.6,12.14,5.06,17.69,10.47A36.53,36.53,0,0,1,121.54,71Z"/><line class="cls-1" x1="27.4" y1="125.07" x2="27.33" y2="125.07"/></g></g></svg>