<?xml version="1.0" encoding="utf-8"?>
<!-- Generator: Adobe Illustrator 26.0.1, SVG Export Plug-In . SVG Version: 6.00 Build 0)  -->
<svg version="1.1" id="Layer_1" xmlns="http://www.w3.org/2000/svg" xmlns:xlink="http://www.w3.org/1999/xlink" x="0px" y="0px"
	 viewBox="0 0 595.28 841.89" enable-background="new 0 0 595.28 841.89" xml:space="preserve">
<polyline fill="none" points="288.3,352.36 287.91,352.36 284.19,352.36 283.84,352.36 "/>
<path fill="#F28221" d="M324.07,326.19c-8.01-7.82-15.07-11.53-28.35-11.53h-48.15v131.25l26.77,0.91l7.41,0.26v-6.91l-6.78-0.44
	h-0.07l-0.55-0.04l-19.36-1.19V324.25c11.18-0.38,35.49-0.87,42.56,0.28c9.22,1.51,16.12,9.26,19.2,18.75h17.98
	C332.94,336.87,329.41,331.17,324.07,326.19z"/>
<path fill="#F28221" d="M369.11,385.66c0,5.27-0.79,10.55-3.32,15.44c-5.27,11.14-13.67,17.59-25.39,21.49h0.18
	c-8.99,3.13-17.4,3.72-22.49,3.72h-1.56v52.36h-38.49V383.8c0-3.48,2.83-6.31,6.31-6.31h27.1c1.23-2.78,3.59-4.94,6.5-5.9h0.01
	c0.98-0.31,2.02-0.49,3.09-0.52c4.58-0.1,8.64,2.82,10.24,6.91c0.43,1.11,0.69,2.29,0.73,3.52c0.17,6.07-4.71,11.04-10.73,11.04
	c-2.68,0-5.15-0.98-7.03-2.62c-1.21-1.02-2.17-2.31-2.81-3.79h-21.66c-2.4,0-4.34,1.94-4.34,4.35v80.78h22.45v-53.59
	c0,0,7.64,0,10.19,0c4.89,0,13.86-2.25,18.09-4.15c9.72-4.36,15.31-15.69,15.31-27.41c0-10.34-4.52-20.63-11.99-26.16
	c-2.66-1.97-5.7-3.34-9.03-3.89c-1.83-0.31-4.74-0.49-8.22-0.6c-10.04-0.31-24.89,0.05-32.61,0.33c-1.72,3.58-5.38,6.06-9.6,6.08
	c-5.75,0.04-10.63-4.68-10.81-10.41c-0.17-6.08,4.69-11.05,10.73-11.05c4.14,0,7.73,2.35,9.51,5.79h39.17
	c4.07,0,7.56,0.34,10.66,1.06c7.04,1.6,12.14,5.06,17.69,10.47C365.2,365.34,369.11,374.71,369.11,385.66z"/>
<line fill="none" x1="274.97" y1="439.73" x2="274.9" y2="439.73"/>
<path fill="none" d="M285.62,440.43"/>
</svg>
