<svg xmlns="http://www.w3.org/2000/svg" xmlns:xlink="http://www.w3.org/1999/xlink" width="512" zoomAndPan="magnify" viewBox="0 0 384 383.999986" height="512" preserveAspectRatio="xMidYMid meet" version="1.0"><defs><g/></defs><g fill="#ffffff" fill-opacity="1"><g transform="translate(1.925699, 209.242601)"><g><path d="M 62.28125 -47.8125 L 62.28125 -47.328125 C 62.28125 -47.378906 62.28125 -47.414062 62.28125 -47.4375 C 62.28125 -47.46875 62.28125 -47.507812 62.28125 -47.5625 C 62.28125 -47.625 62.28125 -47.664062 62.28125 -47.6875 C 62.28125 -47.71875 62.28125 -47.757812 62.28125 -47.8125 Z M 63.828125 -3.515625 C 64.160156 -3.078125 64.269531 -2.421875 64.15625 -1.546875 C 64 -0.460938 63.375 0.078125 62.28125 0.078125 L 53.296875 0.078125 C 52.585938 0.078125 52.015625 -0.0820312 51.578125 -0.40625 C 51.410156 -0.519531 51.257812 -0.679688 51.125 -0.890625 C 50.988281 -1.109375 50.835938 -1.328125 50.671875 -1.546875 L 35.875 -27.796875 L 18.640625 -27.796875 L 18.640625 -2.78125 C 18.640625 -1.53125 18.351562 -0.738281 17.78125 -0.40625 C 17.207031 -0.0820312 16.726562 0.078125 16.34375 0.078125 L 8.90625 0.078125 C 8.53125 0.078125 8.039062 -0.0820312 7.4375 -0.40625 C 6.832031 -0.738281 6.53125 -1.53125 6.53125 -2.78125 L 6.53125 -37.109375 C 6.53125 -38.359375 6.832031 -39.132812 7.4375 -39.4375 C 8.039062 -39.738281 8.53125 -39.890625 8.90625 -39.890625 L 44.46875 -39.890625 C 46.53125 -39.890625 47.972656 -40.488281 48.796875 -41.6875 C 49.671875 -42.882812 50.109375 -44.84375 50.109375 -47.5625 C 50.109375 -50.289062 49.671875 -52.253906 48.796875 -53.453125 C 47.972656 -54.648438 46.53125 -55.25 44.46875 -55.25 L 8.90625 -55.25 C 8.53125 -55.25 8.039062 -55.398438 7.4375 -55.703125 C 6.832031 -56.003906 6.53125 -56.78125 6.53125 -58.03125 L 6.53125 -64.484375 C 6.53125 -65.796875 6.832031 -66.597656 7.4375 -66.890625 C 8.039062 -67.191406 8.53125 -67.34375 8.90625 -67.34375 L 46.59375 -67.34375 C 52.195312 -67.34375 56.226562 -65.601562 58.6875 -62.125 C 61.03125 -58.738281 62.226562 -53.882812 62.28125 -47.5625 C 62.226562 -41.25 61.03125 -36.398438 58.6875 -33.015625 C 56.613281 -30.179688 53.5625 -28.519531 49.53125 -28.03125 Z M 63.828125 -3.515625 "/></g></g></g><g fill="#ffffff" fill-opacity="1"><g transform="translate(76.784111, 209.242601)"><g><path d="M 53.703125 -12.09375 C 54.078125 -12.09375 54.550781 -11.925781 55.125 -11.59375 C 55.695312 -11.269531 55.984375 -10.484375 55.984375 -9.234375 L 55.984375 -2.78125 C 55.984375 -1.53125 55.695312 -0.738281 55.125 -0.40625 C 54.550781 -0.0820312 54.078125 0.078125 53.703125 0.078125 L 26.734375 0.078125 C 23.128906 0.078125 20.078125 -0.382812 17.578125 -1.3125 C 15.015625 -2.175781 12.890625 -3.703125 11.203125 -5.890625 C 9.617188 -7.847656 8.445312 -10.515625 7.6875 -13.890625 C 6.914062 -17.210938 6.53125 -21.109375 6.53125 -25.578125 L 6.53125 -64.484375 C 6.53125 -65.796875 6.832031 -66.597656 7.4375 -66.890625 C 8.039062 -67.191406 8.53125 -67.34375 8.90625 -67.34375 L 16.421875 -67.34375 C 16.753906 -67.34375 17.21875 -67.191406 17.8125 -66.890625 C 18.414062 -66.597656 18.71875 -65.796875 18.71875 -64.484375 L 18.71875 -24.1875 C 18.71875 -22.988281 18.742188 -21.875 18.796875 -20.84375 C 18.847656 -19.8125 18.957031 -18.882812 19.125 -18.0625 C 19.34375 -16.59375 19.804688 -15.394531 20.515625 -14.46875 C 21.054688 -13.59375 21.847656 -12.992188 22.890625 -12.671875 C 23.972656 -12.285156 25.390625 -12.09375 27.140625 -12.09375 Z M 53.703125 -12.09375 "/></g></g></g><g fill="#ffffff" fill-opacity="1"><g transform="translate(143.388502, 209.242601)"><g><path d="M 62.203125 -61.375 C 63.773438 -59.414062 64.945312 -56.75 65.71875 -53.375 C 66.039062 -51.789062 66.296875 -50.019531 66.484375 -48.0625 C 66.679688 -46.101562 66.78125 -44.003906 66.78125 -41.765625 L 66.78125 -25.578125 C 66.78125 -23.296875 66.679688 -21.171875 66.484375 -19.203125 C 66.296875 -17.242188 66.039062 -15.472656 65.71875 -13.890625 C 64.945312 -10.566406 63.773438 -7.867188 62.203125 -5.796875 C 60.515625 -3.671875 58.390625 -2.175781 55.828125 -1.3125 C 53.210938 -0.382812 50.132812 0.078125 46.59375 0.078125 L 26.640625 0.078125 C 23.046875 0.078125 19.992188 -0.382812 17.484375 -1.3125 C 14.929688 -2.175781 12.804688 -3.703125 11.109375 -5.890625 C 9.472656 -8.015625 8.300781 -10.679688 7.59375 -13.890625 C 7.21875 -15.472656 6.945312 -17.242188 6.78125 -19.203125 C 6.613281 -21.171875 6.53125 -23.296875 6.53125 -25.578125 L 6.53125 -41.765625 C 6.53125 -46.453125 6.882812 -50.320312 7.59375 -53.375 C 8.300781 -56.582031 9.472656 -59.25 11.109375 -61.375 C 12.804688 -63.445312 14.929688 -64.972656 17.484375 -65.953125 C 20.109375 -66.878906 23.160156 -67.34375 26.640625 -67.34375 L 46.59375 -67.34375 C 50.132812 -67.34375 53.210938 -66.878906 55.828125 -65.953125 C 58.390625 -64.972656 60.515625 -63.445312 62.203125 -61.375 Z M 54.59375 -43.15625 C 54.59375 -44.351562 54.566406 -45.457031 54.515625 -46.46875 C 54.460938 -47.476562 54.351562 -48.390625 54.1875 -49.203125 C 53.96875 -50.734375 53.503906 -51.957031 52.796875 -52.875 C 52.253906 -53.644531 51.4375 -54.25 50.34375 -54.6875 C 49.800781 -54.84375 49.1875 -54.972656 48.5 -55.078125 C 47.820312 -55.191406 47.050781 -55.25 46.1875 -55.25 L 27.046875 -55.25 C 26.179688 -55.25 25.40625 -55.191406 24.71875 -55.078125 C 24.039062 -54.972656 23.429688 -54.84375 22.890625 -54.6875 C 21.796875 -54.25 20.976562 -53.644531 20.4375 -52.875 C 20.101562 -52.445312 19.828125 -51.914062 19.609375 -51.28125 C 19.398438 -50.65625 19.210938 -49.960938 19.046875 -49.203125 C 18.929688 -48.390625 18.832031 -47.476562 18.75 -46.46875 C 18.675781 -45.457031 18.640625 -44.351562 18.640625 -43.15625 L 18.640625 -24.109375 C 18.640625 -22.910156 18.675781 -21.804688 18.75 -20.796875 C 18.832031 -19.796875 18.929688 -18.882812 19.046875 -18.0625 C 19.210938 -17.351562 19.398438 -16.6875 19.609375 -16.0625 C 19.828125 -15.4375 20.101562 -14.90625 20.4375 -14.46875 C 20.976562 -13.59375 21.796875 -12.992188 22.890625 -12.671875 C 23.867188 -12.285156 25.253906 -12.09375 27.046875 -12.09375 L 46.1875 -12.09375 C 47.976562 -12.09375 49.363281 -12.285156 50.34375 -12.671875 C 51.4375 -12.992188 52.253906 -13.59375 52.796875 -14.46875 C 53.453125 -15.28125 53.914062 -16.476562 54.1875 -18.0625 C 54.351562 -18.882812 54.460938 -19.796875 54.515625 -20.796875 C 54.566406 -21.804688 54.59375 -22.910156 54.59375 -24.109375 Z M 54.59375 -43.15625 "/></g></g></g><g fill="#ffffff" fill-opacity="1"><g transform="translate(220.780349, 209.242601)"><g><path d="M 50.34375 -59.75 L 73.3125 -3.109375 C 73.644531 -2.347656 73.726562 -1.691406 73.5625 -1.140625 C 73.507812 -0.921875 73.359375 -0.660156 73.109375 -0.359375 C 72.867188 -0.0664062 72.421875 0.078125 71.765625 0.078125 L 63.015625 0.078125 C 61.867188 0.078125 61.078125 -0.519531 60.640625 -1.71875 L 40.375 -52.3125 C 40.320312 -52.414062 40.296875 -52.46875 40.296875 -52.46875 L 39.96875 -52.46875 C 39.96875 -52.46875 39.953125 -52.453125 39.921875 -52.421875 C 39.898438 -52.398438 39.859375 -52.335938 39.796875 -52.234375 L 29.34375 -25.75 L 39.484375 -25.75 C 40.617188 -25.75 41.40625 -25.203125 41.84375 -24.109375 L 44.796875 -16.84375 C 45.066406 -15.914062 44.957031 -15.125 44.46875 -14.46875 C 44.03125 -13.707031 43.320312 -13.328125 42.34375 -13.328125 L 24.4375 -13.328125 L 19.78125 -1.640625 C 19.34375 -0.492188 18.578125 0.078125 17.484375 0.078125 L 8.5 0.078125 C 7.84375 0.078125 7.390625 -0.0664062 7.140625 -0.359375 C 6.898438 -0.660156 6.753906 -0.921875 6.703125 -1.140625 C 6.535156 -1.628906 6.585938 -2.285156 6.859375 -3.109375 L 29.671875 -59.75 C 30.753906 -62.632812 31.953125 -64.625 33.265625 -65.71875 C 33.429688 -65.820312 33.625 -65.957031 33.84375 -66.125 C 34.0625 -66.289062 34.273438 -66.425781 34.484375 -66.53125 C 36.117188 -67.675781 38 -68.25 40.125 -68.25 C 42.363281 -68.25 44.378906 -67.566406 46.171875 -66.203125 C 47.972656 -64.835938 49.203125 -63.09375 49.859375 -60.96875 C 49.960938 -60.8125 50.054688 -60.625 50.140625 -60.40625 C 50.222656 -60.1875 50.289062 -59.96875 50.34375 -59.75 Z M 50.34375 -59.75 "/></g></g></g><g fill="#ffffff" fill-opacity="1"><g transform="translate(305.118663, 209.242601)"><g><path d="M 62.359375 -52.140625 C 63.179688 -48.710938 63.59375 -44.679688 63.59375 -40.046875 L 63.59375 -27.21875 C 63.59375 -22.582031 63.179688 -18.550781 62.359375 -15.125 C 61.984375 -13.4375 61.453125 -11.867188 60.765625 -10.421875 C 60.085938 -8.972656 59.3125 -7.707031 58.4375 -6.625 C 56.644531 -4.332031 54.332031 -2.640625 51.5 -1.546875 C 48.71875 -0.460938 45.421875 0.078125 41.609375 0.078125 L 13.65625 0.078125 C 12.394531 0.078125 11.207031 -0.234375 10.09375 -0.859375 C 8.976562 -1.484375 8.09375 -2.34375 7.4375 -3.4375 C 7 -4.195312 6.695312 -5.039062 6.53125 -5.96875 L 6.625 -61.796875 C 6.726562 -62.117188 6.847656 -62.457031 6.984375 -62.8125 C 7.117188 -63.164062 7.269531 -63.503906 7.4375 -63.828125 C 8.75 -65.953125 10.628906 -67.097656 13.078125 -67.265625 L 13.078125 -67.34375 L 41.609375 -67.34375 C 45.367188 -67.34375 48.664062 -66.800781 51.5 -65.71875 C 54.269531 -64.625 56.582031 -62.960938 58.4375 -60.734375 C 59.3125 -59.585938 60.085938 -58.304688 60.765625 -56.890625 C 61.453125 -55.472656 61.984375 -53.890625 62.359375 -52.140625 Z M 18.546875 -12.5 C 18.546875 -12.34375 18.5625 -12.234375 18.59375 -12.171875 C 18.625 -12.117188 18.640625 -12.09375 18.640625 -12.09375 L 41.359375 -12.09375 C 42.285156 -12.09375 43.15625 -12.144531 43.96875 -12.25 C 44.789062 -12.363281 45.53125 -12.53125 46.1875 -12.75 C 47.4375 -13.238281 48.441406 -13.972656 49.203125 -14.953125 C 50.023438 -16.046875 50.597656 -17.460938 50.921875 -19.203125 C 51.085938 -20.128906 51.222656 -21.148438 51.328125 -22.265625 C 51.441406 -23.390625 51.5 -24.628906 51.5 -25.984375 L 51.5 -41.28125 C 51.5 -42.632812 51.441406 -43.882812 51.328125 -45.03125 C 51.222656 -46.175781 51.085938 -47.210938 50.921875 -48.140625 C 50.597656 -49.878906 50.023438 -51.269531 49.203125 -52.3125 C 48.546875 -53.289062 47.539062 -54.023438 46.1875 -54.515625 C 44.875 -55.003906 43.265625 -55.25 41.359375 -55.25 L 18.71875 -55.25 C 18.601562 -55.25 18.546875 -55.085938 18.546875 -54.765625 Z M 18.546875 -12.5 "/></g></g></g></svg>