<svg xmlns="http://www.w3.org/2000/svg" viewBox="0 0 500 500" width="100%" height="100%">
  <!-- Black circle background -->
  <path fill="#010101" d="
    M250,5 
    C385.5,5 495,114.5 495,250
    C495,385.5 385.5,495 250,495
    C114.5,495 5,385.5 5,250
    C5,114.5 114.5,5 250,5 Z
  "/>
  
  <!-- White R letter -->
  <path fill="#FEFEFE" d="
    M207.5,169.17
    C188.34,169.17 170.18,169.18 152.02,169.16
    C143.38,169.16 140.23,166.18 140.1,157.55
    C139.96,148.55 140.04,139.56 140.06,130.56
    C140.08,120.85 142.91,118.01 152.54,118
    C187.87,117.99 223.19,117.99 258.51,118
    C277.34,118.01 296.17,117.77 315,118.18
    C326.55,118.44 337.7,121 347.72,127.33
    C359.94,135.07 366.97,146.59 370.78,160
    C378.63,187.68 378.83,215.57 370.92,243.28
    C364.47,265.85 350.16,280.32 326.39,284.32
    C325.57,284.46 324.76,284.66 323.95,284.88
    C323.66,284.97 323.4,285.19 322.86,285.51
    C333.37,303.59 343.87,321.67 354.38,339.74
    C363.74,355.83 373.18,371.86 382.37,388.04
    C383.77,390.5 384.64,393.66 384.58,396.47
    C384.45,402.02 381.93,404.04 376.33,404.06
    C364.16,404.1 352,403.7 339.84,404.22
    C333.34,404.5 329.72,401.8 326.78,396.49
    C317.3,379.33 307.58,362.31 297.96,345.23
    C286.87,325.55 275.78,305.87 264.71,286.21
    C240.33,286.21 216.05,286.21 191.46,286.21
    C191.46,293.88 191.46,301.35 191.46,308.82
    C191.46,335.31 191.47,361.8 191.44,388.29
    C191.44,390.95 191.36,393.64 191.02,396.27
    C190.34,401.44 187.55,403.99 182.39,404.04
    C171.39,404.13 160.39,404.09 149.4,404.06
    C144.57,404.04 141.53,401.65 140.68,396.86
    C140.28,394.58 140.08,392.24 140.08,389.93
    C140.05,342.77 140.04,295.62 140.06,248.47
    C140.07,237.18 142.86,234.49 154.35,234.49
    C203,234.49 251.65,234.5 300.3,234.49
    C315.23,234.49 322.46,228.48 324,213.44
    C324.81,205.41 324.7,197.13 323.83,189.09
    C322.37,175.68 314.47,169.19 301,169.18
    C269.81,169.15 238.66,169.17 207.5,169.17 Z
  "/>
</svg>