<?xml version="1.0" encoding="UTF-8"?>
<svg id="Layer_1" data-name="Layer 1" xmlns="http://www.w3.org/2000/svg" viewBox="0 0 422.12 475.8">
  <defs>
    <style>
      .cls-1 {
        fill: #27333b;
      }

      .cls-1, .cls-2, .cls-3, .cls-4, .cls-5, .cls-6, .cls-7, .cls-8, .cls-9, .cls-10, .cls-11, .cls-12, .cls-13, .cls-14 {
        stroke-width: 0px;
      }

      .cls-2 {
        fill: #596f7d;
      }

      .cls-3 {
        fill: #f354f6;
      }

      .cls-4 {
        fill: #f652f7;
      }

      .cls-5 {
        fill: #27c5ea;
      }

      .cls-6 {
        fill: #2a343d;
      }

      .cls-8 {
        fill: #29333c;
      }

      .cls-9 {
        fill: #fff;
      }

      .cls-10 {
        fill: #fd4cfe;
      }

      .cls-11 {
        fill: #2c3342;
      }

      .cls-12 {
        fill: #fd4efe;
      }

      .cls-13 {
        fill: #181f27;
      }

      .cls-14 {
        fill: #fa50fb;
      }
    </style>
  </defs>
  <g>
    <path class="cls-10" d="M187.19,189.59l-130.44,58.58c-5.28,2.37-11.49.01-13.86-5.27h0c-2.37-5.28-.01-11.49,5.27-13.86l130.44-58.58c5.28-2.37,11.49-.01,13.86,5.27h0c2.37,5.28.01,11.49-5.27,13.86Z"/>
    <path class="cls-5" d="M182.03,228.81l-96.99,47.46c-5.2,2.55-11.48.39-14.03-4.81h0c-2.55-5.2-.39-11.48,4.81-14.03l96.99-47.46c5.2-2.55,11.48-.39,14.03,4.81s.39,11.48-4.81,14.03Z"/>
    <path class="cls-5" d="M347.68,219.54h0c-3.07-6.27-10.63-8.86-16.9-5.8l-96.77,47.35v28.13l107.87-52.79c6.27-3.07,8.86-10.63,5.8-16.9Z"/>
    <path class="cls-4" d="M55.48,288.75l-40.38,19.76c-5.2,2.55-11.48.39-14.03-4.81h0c-2.55-5.2-.39-11.48,4.81-14.03l40.38-19.76c5.2-2.55,11.48-.39,14.03,4.81h0c2.55,5.2.39,11.48-4.81,14.03Z"/>
    <path class="cls-5" d="M117.59,298.81l-71.21,34.84c-3.9,1.91-8.6.29-10.51-3.6h0c-1.91-3.9-.29-8.6,3.6-10.51l71.21-34.84c3.9-1.91,8.6-.29,10.51,3.6h0c1.91,3.9.29,8.6-3.6,10.51Z"/>
    <path class="cls-4" d="M204.39,294.09l-71.21,34.84c-3.9,1.91-8.6.29-10.51-3.6h0c-1.91-3.9-.29-8.6,3.6-10.51l71.21-34.84c3.9-1.91,8.6-.29,10.51,3.6h0c1.91,3.9.29,8.6-3.6,10.51Z"/>
    <path class="cls-10" d="M329.29,196.67l-127.9,62.58c-5.2,2.55-11.48.39-14.03-4.81h0c-2.55-5.2-.39-11.48,4.81-14.03l127.9-62.58c5.2-2.55,11.48-.39,14.03,4.81h0c2.55,5.2.39,11.48-4.81,14.03Z"/>
    <path class="cls-10" d="M372.55,134.37l-50.8,24.86c-5.2,2.55-11.48.39-14.03-4.81h0c-2.55-5.2-.39-11.48,4.81-14.03l50.8-24.86c5.2-2.55,11.48-.39,14.03,4.81h0c2.55,5.2.39,11.48-4.81,14.03Z"/>
    <path class="cls-5" d="M416.24,179l-50.8,24.86c-5.2,2.55-11.48.39-14.03-4.81h0c-2.55-5.2-.39-11.48,4.81-14.03l50.8-24.86c5.2-2.55,11.48-.39,14.03,4.81h0c2.55,5.2.39,11.48-4.81,14.03Z"/>
  </g>
  <path class="cls-7" d="M312.37,275.88c-.25,1.59-.61,3.24-1.09,4.93-2.48,8.6-7.21,14.26-9.84,16.99-28.57,23.36-58.36,48.45-86.93,71.81-29.79-25.97-58.36-53.66-88.15-79.63-.79-1.37-3.53-6.26-4.97-12.73-.93-4.21-1.32-9.08-.26-14.09.37-1.75.92-3.51,1.67-5.27,2.8-6.49,7.36-10.25,11.1-13.26,11.26-9.07,24.02-11.69,32.55-12.43,1.12-.1,2.17-.16,3.14-.2,6.02-2.64,12.89-5.03,20.59-6.74.36-.08.71-.16,1.07-.23,8.11-1.72,15.94-2.43,23.34-2.42h0c1.18,0,2.35.02,3.5.06,2.3.07,4.55.21,6.75.4.81.07,1.62.15,2.42.24,9.81,1.06,18.58,3.22,25.89,5.57,5.02,1.62,9.34,3.32,12.85,4.84,1.97,1.02,3.94,2.05,5.91,3.07,13,6.75,26,13.51,39,20.26.32,1.02.74,2.48,1.11,4.31.73,3.64,1.25,8.72.34,14.54Z"/>
  <path class="cls-1" d="M188.21,310.61c4.97,4.29,12.01,11.41,17.89,21.89,5.14,9.17,7.58,17.66,8.81,23.69,1.13-5.83,3.45-14.17,8.54-23.15,6.24-11,13.92-18.12,19.01-22.16-4.02,1.42-10.46,4.25-16.81,9.93-5.62,5.02-8.84,10.37-10.74,13.96-1.44-3.4-4.44-9-9.89-14.23-6.38-6.11-13.13-8.78-16.81-9.93Z"/>
  <path class="cls-9" d="M258.58,247.8v39.33c-13.61,7.24-27.54,14.94-40.41,21.12-12.82-6.17-26.79-13.55-40.41-20.57v-39.89h80.82Z"/>
  <path class="cls-12" d="M279.93,276.2c-6.88,3.31-14.07,7.05-21.35,10.93-13.61,7.24-27.54,14.94-40.41,21.12,12.63-17.86,27.77-39.26,40.41-57.14.03-.04.06-.08.09-.13,7.09,8.41,14.17,16.81,21.26,25.22Z"/>
  <path class="cls-5" d="M218.17,308.25c-12.82-6.17-26.79-13.55-40.41-20.57-7.35-3.79-14.61-7.47-21.53-10.8,7.09-8.41,14.17-16.81,21.26-25.22.09.13.18.25.27.38,12.61,17.82,27.84,38.43,40.41,56.21Z"/>
  <path class="cls-11" d="M299.66,263.08c-6.7,4.38-13.4,8.75-20.09,13.13-10.65-13.31-21.84-25.97-32.49-39.28,5.2,5.16,12.54,10.39,21.12,15.95,6.4,4.14,12.49,7.28,17.89,9.66,4.53.18,9.05.36,13.57.54Z"/>
  <path class="cls-11" d="M136.13,263.8c6.7,4.38,13.4,8.75,20.09,13.13,10.65-13.31,22.44-25.8,33.09-39.11-5.2,5.16-13.13,10.22-21.72,15.78-6.4,4.14-12.49,7.28-17.89,9.66-4.52.18-9.05.36-13.57.54Z"/>
  <path class="cls-12" d="M312.37,275.88c-17.62,7.69-35.24,15.38-52.85,23.07,17.5-12.54,35.01-25.07,52.51-37.61.73,3.64,1.25,8.72.34,14.54Z"/>
  <path class="cls-5" d="M171.1,298.95c-16.57-7.23-33.14-14.47-49.72-21.7-.93-4.21-1.32-9.08-.26-14.09,16.66,11.93,33.32,23.86,49.97,35.79Z"/>
  <path class="cls-7" d="M355.5,162.59c-.3,1.8-9.65-.28-22.19.86-6.51.6-13.89,2.06-21.31,5.39-8.05,3.61-13.91,8.42-17.76,12.13,4.24,2.02,7.24,3.65,9.3,4.94,3.21,2.02,4.15,3.25,3.92,4-.34,1.13-3.42,1.73-13.19.53h-.02c-1.72-.2-3.65-.48-5.81-.8-2.18,2.29-4.35,4.57-6.55,6.85h0c-.97,1.04-1.95,2.06-2.94,3.09.67,5.1,1.12,13.08-1.07,22.23h0c-.35,1.48-.77,2.96-1.26,4.47-.84,2.58-1.82,4.96-2.92,7.18-.2.41-.82,1.65-1.78,3.3-4.8,8.25-9.74,14.37-9.74,14.37s-9.45,11.7-28.17,23.98c-2.01,1.32-5.16,3.25-9.63,4.26-1.55.35-3.14.56-4.8.62-17.11.61-30.21-14.45-38.25-23.69-1.27-1.46-2.47-2.93-3.58-4.39-.25-.32-.49-.65-.73-.97h0c-.65-.89-1.27-1.77-1.86-2.64-.58-.85-1.13-1.68-1.65-2.51-2.26-3.56-4.07-6.99-5.52-10.11-.56-1.22-1.08-2.38-1.53-3.49-.59-1.43-1.1-2.76-1.55-3.98v-.09c-.32-4.61-.63-9.22-.94-13.83-.24-3.53-.49-7.07-.72-10.61-.63-.83-1.26-1.66-1.9-2.48l-5.12-6.74c-11.06,1.02-22.11,2.04-33.17,3.07,1.31-1.3,2.6-2.58,3.91-3.89l.02-.02c.92-.91,1.84-1.82,2.77-2.73,3.07-3.03,6.12-6.05,9.19-9.08,2.13-2.12,4.28-4.24,6.41-6.36-11.33-4.22-29.08-10.83-42.49-15.82-10.49-3.9-18.31-6.82-18.37-6.84l-2.54-.95s-.04-.02-.06-.02c-.02,0-.04-.02-.06-.03-.03,0-.05-.02-.09-.03,14.12-5.09,28.24-10.18,42.37-15.27l.46-.17s.07-.02.1-.03c.21-.09.43-.15.64-.23,2.27-.83,4.54-1.65,6.82-2.46-.27-.22-20.84-15.18-37.77-20.69-20.67-6.7-38.55-6.06-48.72-4.94.42-.61.87-1.24,1.35-1.89.47-.63.97-1.28,1.5-1.96.79-1,1.66-2.03,2.59-3.1.61-.71,1.27-1.43,1.96-2.15,3.07-3.26,6.81-6.68,11.3-9.92,13.05-9.43,25.97-12.73,33.35-14.03-.09-.03-.19-.06-.28-.09-10.81-2.09-19.19-3.74-28.83-5,.02,0,.03-.02.03-.02.43-.25.85-.49,1.3-.73.54-.31,1.08-.61,1.66-.92.39-.21,5.4-3.06,5.81-3.27.7-.37,1.41-.73,2.14-1.11.14-.08.28-.14.42-.21,0,0,.03-.02.03-.02,4.5-2.21,9.55-4.39,15.13-6.36,1.41-.44,2.86-.81,4.3-1.28,10.43-3.4,20.29-5.31,29.48-6.19,4.64-.27,10.8-.53,15.95-.53h.26c2.94.09,5.78.26,8.54.52.13.03.24.05.35.09.03-.02.05-.03.08-.05h0c1.2-.73,2.38-1.4,3.54-2.04.73-.4,1.45-.79,2.17-1.14.8-.41,1.59-.8,2.37-1.17,1.11-.53,2.2-1.02,3.29-1.47.04-.02.09-.03.15-.06,1.08-.44,2.13-.85,3.18-1.23.36-.13.71-.26,1.07-.38.35-.12.7-.23,1.06-.35,2.59-.83,5.08-1.45,7.48-1.89,1.14-.21,2.27-.38,3.38-.5,17.24-2.01,29.5,5.52,36.85,12.35.63.58,1.23,1.16,1.78,1.73.33.33.65.67.96,1,.77.83,1.46,1.62,2.07,2.36.24.29.47.58.69.85,1.14,1.44,1.93,2.6,2.37,3.28.27.42.41.65.41.65,0,0,.29.03.79.08,2.86.28,12.83,1.28,18.22,1.83.02,0,.03,0,.04-.02.54-.21,1.2-.4,1.96-.56.46-.09.96-.18,1.51-.24,1.83-.25,4.08-.32,6.64-.19,4.78.25,10.66,1.28,16.85,3.53,3.74,1.35,7.21,3.36,10.3,5.93.28.23.55.46.82.7.02.01.03.03.05.04,1.75,1.54,3.38,3.26,4.87,5.13,2.35,2.95,4.34,6.29,5.92,9.93,2.29,5.29,3.7,11.21,4.02,17.48.02.38.03.73.05,1.11.03.92.03,1.86.02,2.8,0,.13,0,.27,0,.4h0s0,.04,0,.04c0,0,.02,0,.02,0h.1c.37-.03.74-.05,1.13-.07h.07c6.71-.37,15.29-.1,24.94,2.1.64.15,1.27.3,1.9.45.1.03.21.05.32.08.19.05.38.1.57.15,1.87.49,3.67,1.02,5.42,1.6.44.15.86.29,1.29.44.49.17.99.35,1.48.53.35.13.7.26,1.04.39.41.15.82.32,1.22.48.28.11.56.21.85.34,4.17,1.7,7.92,3.59,11.27,5.54h0c1.9,1.1,3.65,2.21,5.29,3.31.28.19.56.37.82.56.27.18.54.36.8.55.26.18.52.37.77.55.26.19.51.37.75.55.26.17.49.35.73.53h0c2,1.51,3.72,2.91,5.17,4.17.06.05.11.09.16.14-5.19-1.26-23.62-5-41.89,5.17-7.79,4.35-13.09,9.83-16.42,14.06h0c-.34.45-.67.86-.96,1.26.38-.03.79-.05,1.21-.09,6.28-.39,15.08-.38,25.28,1.54h0c.79.15,1.59.31,2.4.48,3.24.7,6.68,1.6,9.8,2.57,6.23,1.94,11.24,4.15,11,5.48Z"/>
  <circle class="cls-9" cx="200.05" cy="188.28" r="32.23"/>
  <circle class="cls-9" cx="243.97" cy="188.28" r="32.23"/>
  <circle class="cls-9" cx="222.75" cy="218.17" r="32.23"/>
  <g>
    <path class="cls-3" d="M177.43,59.41c-2.44.83-4.48,1.87-6.12,2.88.89.81,1.78,1.63,2.67,2.44,0,0,0,0,.01.01.03.03.07.06.1.09,0,0,0,0,0,0,1.59,1.46,3.19,2.92,4.78,4.38-15.28-2.93-34.3-5.3-56.16-5.2-20.28.1-38.1,2.3-52.77,5.08.54-.3,1.09-.61,1.66-.92.39-.21,5.4-3.06,5.81-3.28.69-.37,1.41-.73,2.14-1.1,0,0,0,0-.02,0,.14-.07.29-.14.43-.21l.03-.02c4.5-2.21,9.55-4.39,15.13-6.35h0c1.41-.44,2.86-.81,4.3-1.28,10.43-3.4,20.29-5.32,29.48-6.19,0,0,0,0,0,0,5.66-.54,11.07-.68,16.21-.53,2.93.08,5.78.26,8.53.52.14.01.29.03.43.04,15.99,1.54,28.84,5.61,37.8,8.42-3.17-.47-8.49-.8-14.46,1.22Z"/>
    <path class="cls-6" d="M173.99,64.75c-.17-.04-.35-.08-.53-.12.05,0,.27.06.51.11.33.08.69.16.71.17,0,0-.19-.04-.69-.16Z"/>
    <path class="cls-6" d="M193.52,110.73c-12.8-11.72-32.08-26.07-58.25-34.21-30.59-9.51-57.65-6.5-66.62-6.69.42-.24.85-.49,1.29-.73.54-.3,1.09-.61,1.66-.92.39-.21,5.4-3.06,5.81-3.28.69-.37,1.41-.73,2.14-1.1,11.61-2.58,29.24-4.92,48.41-4.66,18.19.25,33.7,2.78,45.51,5.48-.05,0,.08.03.54.15.03.02.06.04.09.06,0,0,0,0,0,0,7.54,4.78,14.85,14.14,17.61,25.1,2.11,8.39,2.18,15.69,1.82,20.79Z"/>
  </g>
  <g>
    <path class="cls-7" d="M283.69,44.7c-1.4,6.29-1.58,12.12-1.21,17.11.1,1.28.23,2.51.39,3.66,0,.02,0,.02,0,.04.18,1.31.38,2.55.62,3.69.01.07.33,1.96.61,3.59,0,.02,0,.03,0,.05.2,1.19.38,2.22.39,2.26-1.08,2.86-3.32.09-4.62,2.89-1.19,2.59-2.16,5.12-2.98,7.69-1.57.26-3.15.65-4.78,1.17.76-.26,1.51-.53,2.26-.8-.95.32-1.91.61-2.87.87-3.7,1.01-7.46,1.61-11.27,2.01-10.55.58-21.2.67-31.74.62-3.32-.02-6.64-.11-9.96-.18.18-1.09.38-2.27.62-3.56,1.01-5.36,2.71-12.34,5.52-20,.27-.74.55-1.48.84-2.23.32-.83.65-1.65,1-2.49.27-.66.55-1.31.84-1.98,0,0,0-.01,0-.02,0,0,.01-.02.01-.03,0,0,0,0,0-.01,0,0,0-.02.01-.03,0,0,0-.02.01-.02,1.63-3.73,3.52-7.56,5.74-11.38,0-.02.02-.03.03-.05.65-1.13,1.33-2.26,2.04-3.39,7.7-12.2,18.73-24.08,34.52-32.51,17.1-9.12,33.9-10.6,45.04-10.35,0,0,.01,0,.02,0,.76.02,1.5.04,2.21.07.46.01.91.04,1.35.06,0,0,.02,0,.03,0,.11,0,.21,0,.32.02-2.27,1.18-10.28,5.48-18.21,13.42-6.99,7-13.91,16.81-16.79,29.78Z"/>
    <g>
      <path class="cls-6" d="M227.35,59.12c.17-.37,1.24-4.13,2.56-6.38,4.9-12.79,18.3-38.23,49.31-48.66,15.84-5.32,30.38-4.39,39.2-3.02.47.07.92.15,1.36.22-10.82,1.44-31.38,5.48-52.58,18.62-22.78,14.11-34.72,30.43-39.86,39.22Z"/>
      <path class="cls-5" d="M229.91,52.74c5.49-9.34,15.4-22.52,32.35-33.52,21.43-13.9,43.37-17.35,56.17-18.16-8.82-1.37-23.36-2.31-39.2,3.02-31.02,10.43-44.42,35.87-49.31,48.66Z"/>
    </g>
  </g>
  <path class="cls-14" d="M299.01,109.73s-.02.02-.02.03c0,0,0-.01,0-.02.01,0,.02,0,.03,0Z"/>
  <path class="cls-5" d="M364.92,131.97c-5.68-2.45-12.59-5.51-20.72-7.09-2.33-.45-4.76-.79-7.3-.95-12.22-.78-22.39,1.05-29.4,2.92-1.9-7.85-4.89-11.94-8.51-17.1.03-.02.06-.03.09-.03.37-.03.74-.05,1.13-.07h.07c6.71-.37,15.29-.1,24.94,2.1.64.15,1.27.3,1.9.45.3.08.59.15.89.23,1.87.49,3.67,1.02,5.42,1.61.44.15.86.29,1.29.44.5.17.99.35,1.48.53.35.13.7.26,1.04.39,0,0,0,0,.01,0,.39.15.77.3,1.15.45.02,0,.04.01.05.02.28.11.56.21.85.34,4.17,1.7,7.92,3.59,11.27,5.54h0c1.9,1.1,3.65,2.21,5.29,3.31.28.19.55.37.82.56.81.55,1.58,1.11,2.32,1.65.25.18.49.36.73.54h0c2,1.5,3.72,2.9,5.17,4.16Z"/>
  <path class="cls-6" d="M193.85,119.28c-9.18-7.18-39.12-28.72-82.89-28.95-26.37-.14-47.56,7.51-61.59,14.55-.81.4-1.59.81-2.35,1.21,3.75-5.05,9.36-11.36,17.34-17.13,13.05-9.43,25.97-12.73,33.35-14.02-.09-.03-.19-.06-.28-.09,1.42.17,2.86.36,4.33.57,10.52,1.51,22.43,4.22,35.08,8.89,27.48,10.16,46.39,25.17,57,34.97Z"/>
  <path class="cls-7" d="M208.64,156.55c-9.89,7.28-13.4,17.89-15.9,33.41-.01.06-.05.11-.07.14-2.15-3.83-8.88-16.9-6.8-33.75h0c0-.07.02-.14.03-.2.55-4.06,1.5-7.79,2.68-11.18,0,0,0-.01,0-.02,3.93-10.93,11.77-20.21,14.99-23.29.03-.02.05-.05.08-.07,1.66,11.66,3.33,23.31,4.99,34.97Z"/>
  <path class="cls-5" d="M192.73,189.95c.03.13.05.27.08.4-.05-.08-.1-.17-.15-.26-2.15-3.83-8.88-16.9-6.8-33.75h0c.21-1.73.52-3.49.92-5.28.49-2.15,1.1-4.19,1.79-6.1,0,0,0-.01,0-.02,3.93-10.93,11.77-20.21,14.99-23.29.03-.02.05-.05.08-.07-3.51,6.59-8.92,18.45-11.19,30.57-2.99,15.96-1.41,29.39.28,37.81Z"/>
  <path class="cls-7" d="M267.48,132.05c-4.3,9.26-11.11,14.23-15.96,12.95-.98-.26-2.56-.96-4.14-3.15-3.75,2.91-18.18,7.21-18.37,7.22,0,0,5.61,13.73-4.19,36.88,13.62-7.49,19.34-11.32,25.4-17.35,10.39-10.36,13.3-16.93,14.61-20.59,2.29-6.37,2.69-12.09,2.65-15.96Z"/>
  <circle class="cls-7" cx="257.33" cy="188.3" r="4"/>
  <circle class="cls-7" cx="238.63" cy="188.3" r="4"/>
  <circle class="cls-7" cx="247.98" cy="178.66" r="4"/>
  <circle class="cls-7" cx="247.98" cy="198.4" r="4"/>
  <rect class="cls-7" x="184.18" y="184.19" width="28.36" height="9.3"/>
  <rect class="cls-7" x="193.71" y="174.66" width="9.3" height="28.36"/>
  <path class="cls-7" d="M226.08,226.2c-.01-.43-.12-1.86-1.21-3.12-1.38-1.59-3.29-1.7-3.62-1.71.46-.04,1.87-.21,3.12-1.35,1.48-1.35,1.67-3.08,1.71-3.48.02.37.15,2.08,1.57,3.44,1.31,1.25,2.85,1.37,3.26,1.39-.42.04-2.18.27-3.53,1.8-1.06,1.21-1.26,2.54-1.3,3.03Z"/>
  <path class="cls-7" d="M216.28,226.2c-.01-.43-.12-1.86-1.21-3.12-1.38-1.59-3.29-1.7-3.62-1.71.46-.04,1.87-.21,3.12-1.35,1.48-1.35,1.67-3.08,1.71-3.48.02.37.15,2.08,1.57,3.44,1.31,1.25,2.85,1.37,3.26,1.39-.42.04-2.18.27-3.53,1.8-1.06,1.21-1.26,2.54-1.3,3.03Z"/>
  <path class="cls-13" d="M269.32,160.55c.94,2.97,2.43,9.09.9,16.54-1.1,5.38-3.35,9.36-4.94,11.73,4.76-3.79,9.53-7.58,14.29-11.37-3.42-5.63-6.83-11.27-10.25-16.9Z"/>
  <path class="cls-8" d="M267.12,130.3c-3.57,10.9-10.39,16.95-15.28,15.96-.91-.18-3.05-.87-5.12-4.41-2.36,7.29-5.61,15.64-10.16,24.54-3.84,7.52-7.89,14.04-11.73,19.55,5.36-2.43,13.08-6.47,21.35-12.95,6.94-5.43,12.17-9.52,16.14-16.68,2.03-3.67,6.19-12.58,4.81-26.03Z"/>
  <path class="cls-2" d="M101.77,75.42c-13.05,3.84-33.61,11.89-52.4,29.47-.81.4-1.59.81-2.35,1.21,3.75-5.05,9.36-11.36,17.34-17.13,13.05-9.43,25.97-12.73,33.35-14.02-.09-.03-.19-.06-.28-.09,1.42.17,2.86.36,4.33.57Z"/>
  <path class="cls-10" d="M152.35,147.73c-9.71.72-69.53,4.42-70.38,4.11-.02,0-.04-.02-.06-.02-.02,0-.04-.02-.06-.02-.03,0-.06-.02-.09-.03,14.12-5.09,28.25-10.18,42.37-15.26l.46-.17s.06-.02.1-.03c.21-.08.43-.15.64-.23,2.28-.83,4.54-1.64,6.82-2.46-.27-.22,16.62,10.6,20.2,14.13Z"/>
  <g>
    <path class="cls-10" d="M73.84,401.68h17.02c5.91,0,10.23,1.38,12.95,4.12,2.71,2.75,4.07,6.98,4.07,12.68v4.49c0,7.59-2.51,12.39-7.52,14.41v.21c2.78.84,4.75,2.54,5.9,5.12,1.15,2.58,1.72,6.02,1.72,10.34v12.84c0,2.09.07,3.78.21,5.06.14,1.29.49,2.56,1.04,3.81h-11.69c-.42-1.18-.7-2.3-.84-3.34-.14-1.04-.21-2.92-.21-5.64v-13.36c0-3.34-.54-5.67-1.62-6.99-1.08-1.32-2.94-1.98-5.59-1.98h-3.97v31.32h-11.48v-73.08ZM89.5,433c2.3,0,4.02-.59,5.17-1.77,1.15-1.18,1.72-3.17,1.72-5.95v-5.64c0-2.64-.47-4.56-1.41-5.74-.94-1.18-2.42-1.77-4.44-1.77h-5.22v20.88h4.18Z"/>
    <path class="cls-10" d="M140.76,401.68h11.48v62.64h18.9v10.44h-30.38v-73.08Z"/>
    <path class="cls-10" d="M204.76,471c-2.99-3.2-4.49-7.73-4.49-13.57v-38.42c0-5.85,1.5-10.37,4.49-13.57,2.99-3.2,7.31-4.8,12.95-4.8s9.95,1.6,12.95,4.8c2.99,3.2,4.49,7.73,4.49,13.57v38.42c0,5.85-1.5,10.37-4.49,13.57-2.99,3.2-7.31,4.8-12.95,4.8s-9.95-1.6-12.95-4.8ZM223.65,458.16v-39.88c0-4.8-1.98-7.2-5.95-7.2s-5.95,2.4-5.95,7.2v39.88c0,4.8,1.98,7.2,5.95,7.2s5.95-2.4,5.95-7.2Z"/>
    <path class="cls-10" d="M276.37,401.68h15.56l11.9,73.08h-11.48l-2.09-14.51v.21h-13.05l-2.09,14.3h-10.65l11.9-73.08ZM288.9,450.54l-5.12-36.12h-.21l-5.01,36.12h10.34Z"/>
    <path class="cls-10" d="M334.21,401.68h17.54c5.71,0,9.99,1.53,12.84,4.59,2.85,3.06,4.28,7.55,4.28,13.47v36.96c0,5.92-1.43,10.41-4.28,13.47-2.85,3.06-7.13,4.59-12.84,4.59h-17.54v-73.08ZM351.54,464.32c1.88,0,3.32-.56,4.33-1.67,1.01-1.11,1.51-2.92,1.51-5.43v-38c0-2.51-.51-4.31-1.51-5.43-1.01-1.11-2.45-1.67-4.33-1.67h-5.85v52.2h5.85Z"/>
  </g>
  <path class="cls-5" d="M154.01,49.82c48.85-29.53,72.91,11.93,72.91,11.93-4.39-4.08-17.96-15.62-38.9-17.67-15.93-1.56-28.31,3.13-34.02,5.74Z"/>
  <path class="cls-10" d="M298.97,109.69c-.16.11-.08-13.91-5.87-24.63-3.19-5.92-9.33-12.01-9.04-12.26.01,0,.03,0,.04,0,0,.02,0,.03,0,.05,2.32.94,6.31,2.92,9.89,6.9,5.27,5.87,6.29,12.37,6.65,14.93.97,6.8-.64,12.26-1.68,15.01Z"/>
</svg>